<?xml version="1.0" encoding="utf-8"?>
<!-- Generator: Adobe Illustrator 16.0.0, SVG Export Plug-In . SVG Version: 6.00 Build 0)  -->
<!DOCTYPE svg PUBLIC "-//W3C//DTD SVG 1.1//EN" "http://www.w3.org/Graphics/SVG/1.1/DTD/svg11.dtd">
<svg version="1.1" id="Capa_1" xmlns="http://www.w3.org/2000/svg" xmlns:xlink="http://www.w3.org/1999/xlink" x="0px" y="0px"
	 width="678.442px" height="638.218px" viewBox="0 0 678.442 638.218" enable-background="new 0 0 678.442 638.218"
	 xml:space="preserve">
<g>
	<defs>
		<rect id="SVGID_1_" width="678.442" height="638.218"/>
	</defs>
	<clipPath id="SVGID_2_">
		<use xlink:href="#SVGID_1_"  overflow="visible"/>
	</clipPath>
	<path clip-path="url(#SVGID_2_)" fill="#94193E" d="M624.372,260.492c-3.841-19-9.601-37.292-16.979-54.676
		c-3.638-8.691-7.782-17.181-12.229-25.367c-4.548-8.287-9.398-16.271-14.553-24.053c-20.92-30.925-47.702-57.707-78.627-78.627
		c-7.782-5.155-15.766-10.005-24.054-14.553c-8.187-4.447-16.675-8.591-25.367-12.229c-34.867-14.755-73.17-22.941-113.292-22.941
		c-40.223,0-78.526,8.186-113.292,22.941c-8.692,3.638-17.181,7.782-25.367,12.229h-0.102c-8.287,4.548-16.17,9.398-23.952,14.553
		c-15.463,10.409-29.915,22.335-43.053,35.574c-14.856,14.755-27.995,31.128-39.415,48.915c-2.829,4.447-5.558,8.894-8.186,13.543
		c-2.021,3.435-3.841,6.872-5.66,10.409c-3.537,7.074-6.872,14.25-10.005,21.628c-1.515,3.739-2.931,7.478-4.346,11.218
		c-3.234,8.893-6.063,17.989-8.489,27.287v0.101c-2.426,9.298-4.346,18.798-5.861,28.399c-2.224,14.452-3.336,29.208-3.336,44.266
		s1.112,29.814,3.336,44.266c1.515,9.601,3.435,19.101,5.861,28.399v0.101c2.426,9.298,5.255,18.394,8.489,27.287
		c1.82,5.053,3.841,10.005,5.964,14.855c1.819,4.245,3.739,8.39,5.76,12.432c0.303,0.708,0.607,1.516,1.011,2.224
		c2.021,4.042,4.143,7.984,6.367,11.925c0.404,0.708,0.808,1.517,1.212,2.224c2.123,3.739,4.447,7.479,6.67,11.117
		c0.607,0.909,1.112,1.819,1.719,2.729c2.223,3.436,4.547,6.771,6.872,10.106c0.808,1.111,1.516,2.224,2.324,3.336
		c2.325,3.03,4.65,6.063,6.974,9.096c1.01,1.313,2.021,2.627,3.133,3.94c2.223,2.628,4.447,5.356,6.771,7.984
		c1.415,1.516,2.729,3.032,4.144,4.548c2.122,2.324,4.244,4.649,6.468,6.872c0.707,0.708,1.414,1.517,2.223,2.325
		c2.223,2.223,4.447,4.345,6.67,6.468c2.224,2.122,4.548,4.244,6.873,6.267c4.648,4.143,9.399,8.085,14.351,11.823
		c2.122,1.617,4.143,3.234,6.266,4.75c0.909,0.708,1.819,1.415,2.729,1.921c4.547,3.234,9.196,6.367,14.047,9.398
		c2.628,1.617,5.256,3.234,7.984,4.851c0.102,0.203,0.102,0.203,0.202,0.102c12.33,7.378,25.266,13.644,38.708,19v-96.01
		c0-4.145,3.335-7.479,7.478-7.479h13.24c4.144,0,7.579,3.335,7.579,7.479v105.611c11.421,3.334,23.144,5.861,35.171,7.781v-383.84
		c0-4.143,3.335-7.478,7.479-7.478h13.239c4.143,0,7.58,3.335,7.58,7.478v386.67c5.356,0.404,10.712,0.505,16.17,0.505
		c6.367,0,12.734-0.202,19-0.707V222.997c0-4.143,3.335-7.478,7.478-7.478h13.24c4.145,0,7.579,3.335,7.579,7.478v383.335
		c12.027-1.92,23.751-4.649,35.171-8.085V493.444c0-4.145,3.335-7.479,7.479-7.479h13.238c4.144,0,7.58,3.335,7.58,7.479v94.898
		c13.441-5.458,26.276-12.026,38.606-19.405c0.101,0,0.202-0.201,0.202-0.201c2.525-1.517,5.053-3.133,7.58-4.75
		c5.053-3.234,10.005-6.569,14.755-10.106c7.176-5.256,14.148-10.915,20.818-16.777c2.225-2.021,4.447-4.042,6.57-6.063
		c2.223-2.021,4.345-4.042,6.467-6.164c13.24-13.139,25.166-27.591,35.575-43.054c5.154-7.781,10.005-15.664,14.553-23.952v-0.102
		c4.447-8.186,8.592-16.675,12.229-25.366c7.378-17.384,13.138-35.676,16.979-54.676c3.84-18.898,5.862-38.505,5.862-58.617
		S628.212,279.391,624.372,260.492 M578.894,370.146c-10.005,24.257-27.793,39.921-52.957,46.691
		c-22.438,5.963-44.671,4.447-65.591-6.063c-17.384-8.793-29.712-22.336-37.192-40.427c-0.606-1.616-0.505-3.03,0.203-4.648
		c23.244-57.505,46.489-115.112,69.835-172.717c0.303-0.809,0.607-1.719,1.011-2.729H184.644l4.649,11.319
		c22.032,54.675,44.165,109.351,66.298,164.026c0.708,1.819,0.808,3.234,0.101,4.952c-9.197,21.527-24.559,36.787-46.59,44.165
		c-27.085,9.197-53.766,7.479-78.527-7.68c-14.856-9.198-25.367-22.336-31.33-38.91c25.873-64.074,51.846-138.357,77.718-202.633
		c0.708-1.718,1.618-2.123,3.234-2.123c28.501,0.102,112.888,0.102,141.287,0.102h3.639v-3.235v-31.43
		c0.101-7.277,4.649-12.734,11.521-14.048c8.287-1.617,16.171,4.851,16.171,13.34c0.101,16.777,0,15.261,0,31.937v3.436h2.93
		c28.602,0,113.899,0,142.399-0.102c2.122,0,3.133,0.506,4.042,2.527c25.469,63.468,51.139,136.74,76.606,200.207
		C579.297,367.215,579.398,369.034,578.894,370.146"/>
	<path clip-path="url(#SVGID_2_)" fill="#94193E" d="M565.856,369.337H437.909c-3.941,0-3.941,0-2.526-3.537
		c21.526-53.361,43.054-106.622,64.579-159.983c0.304-0.708,0.607-1.314,1.112-2.628c2.425,5.963,4.649,11.42,6.872,16.878
		c19.606,48.41,39.112,96.92,58.718,145.33c0.202,0.605,0.405,1.213,0.708,1.818C568.079,368.731,567.372,369.337,565.856,369.337"
		/>
	<path clip-path="url(#SVGID_2_)" fill="#94193E" d="M244.979,369.136c-1.719,0.101-2.729,0.202-3.639,0.202H114.505
		c-3.638,0-3.739-0.202-2.425-3.537c21.527-53.362,43.154-106.622,64.681-159.984c0.303-0.708,0.606-1.516,1.112-2.628
		C200.308,258.672,222.543,313.651,244.979,369.136"/>
</g>
</svg>
