<?xml version="1.0" encoding="utf-8"?>
<!-- Generator: Adobe Illustrator 16.0.0, SVG Export Plug-In . SVG Version: 6.00 Build 0)  -->
<!DOCTYPE svg PUBLIC "-//W3C//DTD SVG 1.1//EN" "http://www.w3.org/Graphics/SVG/1.1/DTD/svg11.dtd">
<svg version="1.1" id="Capa_1" xmlns="http://www.w3.org/2000/svg" xmlns:xlink="http://www.w3.org/1999/xlink" x="0px" y="0px"
	 width="1000px" height="295.506px" viewBox="0 0 1000 295.506" enable-background="new 0 0 1000 295.506" xml:space="preserve">
<g>
	<defs>
		<rect id="SVGID_1_" width="1000" height="295.506"/>
	</defs>
	<clipPath id="SVGID_2_">
		<use xlink:href="#SVGID_1_"  overflow="visible"/>
	</clipPath>
	<path clip-path="url(#SVGID_2_)" fill="#2B3C73" d="M356.778,108.669h15.551c0.727,12.499,12.935,16.858,20.782,17.004
		c9.011,0,18.748-3.633,19.039-13.807c0.291-10.027-7.267-13.951-21.655-16.276c-20.927-2.762-35.025-11.336-35.025-28.486
		c0-16.713,15.405-26.886,33.718-26.886c18.747,0,35.751,10.9,36.332,29.938h-15.696c-0.727-11.917-10.755-16.568-20.636-16.568
		c-9.012,0-17.296,4.942-17.441,13.807c0,7.848,6.395,12.644,20.492,14.824c23.979,3.633,36.769,12.498,36.187,30.956
		c-0.58,18.456-17.876,26.304-35.896,25.868C373.927,138.752,357.505,127.854,356.778,108.669"/>
	<polygon clip-path="url(#SVGID_2_)" fill="#2B3C73" points="438.011,41.672 456.324,41.672 486.843,107.798 517.944,41.672 
		536.257,41.672 536.257,137.591 519.106,137.591 519.106,73.644 492.22,137.591 481.175,137.591 455.016,73.935 455.016,137.591 
		438.011,137.591 	"/>
	<path clip-path="url(#SVGID_2_)" fill="#2B3C73" d="M588.132,41.672h16.423l42.873,95.919h-17.876l-13.226-29.502l-39.676-0.146
		l-13.08,29.648h-17.876L588.132,41.672z M610.367,94.573l-13.951-31.101l-13.807,31.101H610.367z"/>
	<path clip-path="url(#SVGID_2_)" fill="#2B3C73" d="M656.866,41.672h37.496c28.776,0,35.752,16.276,35.752,30.083
		c0,13.516-5.813,26.305-23.544,28.486l-5.23,0.145l23.105,37.204h-19.038l-22.671-37.204h-8.865v37.204h-17.005V41.672z
		 M694.362,86.289c12.063,0,18.603-4.361,18.603-14.534c0-8.574-4.941-15.26-18.747-15.26h-20.347v29.794H694.362z"/>
	<polygon clip-path="url(#SVGID_2_)" fill="#2B3C73" points="766.442,56.495 736.648,56.495 736.648,41.672 813.236,41.672 
		813.236,56.495 783.446,56.495 783.154,137.59 766.151,137.59 	"/>
	<path clip-path="url(#SVGID_2_)" fill="#2B3C73" d="M355.469,157.931h34.881c26.014,0,51.301,14.678,51.301,46.94
		c0,30.084-23.398,48.977-52.028,48.977h-34.154V157.931z M389.915,239.025c21.363,0,34.443-14.969,34.588-33.281
		c0-19.475-12.643-32.99-33.717-32.99h-18.166v66.271H389.915z"/>
	<polygon clip-path="url(#SVGID_2_)" fill="#2B3C73" points="451.09,157.93 517.508,157.93 517.508,174.933 468.094,174.933 
		468.094,198.186 511.985,198.186 511.985,213.011 468.094,213.011 468.094,236.555 517.217,236.555 517.217,253.558 
		451.09,253.558 	"/>
	<polygon clip-path="url(#SVGID_2_)" fill="#2B3C73" points="526.947,157.93 593.364,157.93 593.364,174.933 543.951,174.933 
		543.951,198.186 584.208,198.186 584.208,213.011 543.951,213.011 543.951,253.847 526.947,253.847 	"/>
	<polygon clip-path="url(#SVGID_2_)" fill="#2B3C73" points="602.805,157.93 669.222,157.93 669.222,174.933 619.809,174.933 
		619.809,198.186 663.7,198.186 663.7,213.011 619.809,213.011 619.809,236.555 668.931,236.555 668.931,253.558 602.805,253.558 	
		"/>
	<polygon clip-path="url(#SVGID_2_)" fill="#2B3C73" points="678.662,157.93 693.778,157.93 739.411,225.363 739.411,157.93 
		756.415,157.93 756.415,253.847 741.446,253.847 695.666,187.142 695.666,253.847 678.662,253.847 	"/>
	<path clip-path="url(#SVGID_2_)" fill="#2B3C73" d="M767.309,224.928h15.551c0.726,12.499,12.934,16.856,20.78,17.004
		c9.012,0,18.75-3.633,19.039-13.808c0.29-10.026-7.266-13.95-21.651-16.275c-20.931-2.762-35.026-11.336-35.026-28.486
		c0-16.713,15.405-26.886,33.717-26.886c18.746,0,35.751,10.9,36.333,29.938h-15.695c-0.728-11.917-10.756-16.567-20.638-16.567
		c-9.011,0-17.293,4.941-17.44,13.807c0,7.849,6.395,12.645,20.49,14.824c23.981,3.633,36.769,12.498,36.189,30.956
		c-0.582,18.456-17.876,26.304-35.899,25.867C784.457,255.011,768.036,244.111,767.309,224.928"/>
	<polygon clip-path="url(#SVGID_2_)" fill="#2B3C73" points="848.542,157.93 914.959,157.93 914.959,174.933 865.544,174.933 
		865.544,198.186 909.437,198.186 909.437,213.011 865.544,213.011 865.544,236.555 914.667,236.555 914.667,253.558 
		848.542,253.558 	"/>
	<path clip-path="url(#SVGID_2_)" fill="#94193E" d="M320.932,123.754c-1.573-7.779-3.931-15.268-6.952-22.385
		c-1.489-3.558-3.186-7.034-5.006-10.386c-1.862-3.393-3.848-6.661-5.959-9.847c-8.565-12.662-19.53-23.627-32.191-32.192
		c-3.186-2.11-6.455-4.096-9.848-5.958c-3.351-1.821-6.827-3.517-10.385-5.007c-14.275-6.041-29.957-9.392-46.384-9.392
		c-16.468,0-32.15,3.351-46.383,9.392c-3.559,1.49-7.035,3.186-10.386,5.007h-0.042c-3.392,1.862-6.62,3.848-9.806,5.958
		c-6.331,4.262-12.248,9.145-17.626,14.565c-6.083,6.041-11.462,12.744-16.138,20.026c-1.158,1.821-2.275,3.642-3.351,5.545
		c-0.827,1.407-1.572,2.814-2.317,4.262c-1.448,2.896-2.814,5.834-4.097,8.855c-0.62,1.53-1.199,3.061-1.779,4.592
		c-1.324,3.642-2.482,7.366-3.475,11.172v0.042c-0.993,3.806-1.78,7.696-2.4,11.627c-0.911,5.916-1.366,11.958-1.366,18.123
		c0,6.165,0.455,12.206,1.366,18.123c0.62,3.932,1.407,7.82,2.4,11.627v0.041c0.993,3.808,2.151,7.531,3.475,11.173
		c0.745,2.068,1.573,4.096,2.442,6.082c0.744,1.737,1.531,3.435,2.358,5.09c0.124,0.289,0.248,0.62,0.414,0.91
		c0.827,1.654,1.696,3.269,2.607,4.882c0.165,0.29,0.331,0.621,0.496,0.911c0.869,1.53,1.821,3.062,2.731,4.551
		c0.248,0.373,0.455,0.745,0.703,1.117c0.911,1.406,1.862,2.772,2.814,4.138c0.331,0.455,0.621,0.91,0.952,1.365
		c0.951,1.241,1.903,2.482,2.855,3.725c0.413,0.537,0.827,1.075,1.282,1.613c0.911,1.076,1.821,2.192,2.773,3.269
		c0.579,0.62,1.117,1.241,1.696,1.862c0.869,0.952,1.738,1.903,2.648,2.813c0.29,0.289,0.579,0.62,0.911,0.951
		c0.91,0.911,1.82,1.779,2.73,2.648c0.911,0.869,1.862,1.738,2.814,2.565c1.903,1.696,3.848,3.311,5.876,4.842
		c0.868,0.661,1.696,1.323,2.565,1.944c0.372,0.289,0.745,0.579,1.117,0.786c1.862,1.324,3.765,2.607,5.751,3.848
		c1.076,0.662,2.152,1.324,3.269,1.986c0.042,0.083,0.042,0.083,0.083,0.041c5.048,3.021,10.344,5.586,15.847,7.779v-39.309
		c0-1.696,1.366-3.062,3.062-3.062h5.421c1.696,0,3.103,1.365,3.103,3.062v43.239c4.676,1.365,9.475,2.4,14.399,3.187v-157.15
		c0-1.696,1.366-3.062,3.062-3.062h5.421c1.696,0,3.103,1.366,3.103,3.062v158.309c2.193,0.165,4.386,0.206,6.62,0.206
		c2.607,0,5.214-0.082,7.779-0.289V108.403c0-1.696,1.365-3.062,3.062-3.062h5.42c1.697,0,3.103,1.366,3.103,3.062v156.943
		c4.924-0.786,9.724-1.903,14.4-3.311v-42.908c0-1.696,1.365-3.062,3.062-3.062h5.42c1.696,0,3.103,1.365,3.103,3.062v38.854
		c5.504-2.234,10.758-4.924,15.806-7.945c0.042,0,0.083-0.082,0.083-0.082c1.034-0.621,2.069-1.283,3.103-1.944
		c2.069-1.324,4.097-2.689,6.041-4.139c2.938-2.15,5.793-4.468,8.524-6.868c0.91-0.827,1.821-1.654,2.69-2.482
		c0.91-0.827,1.779-1.655,2.648-2.524c5.42-5.379,10.303-11.296,14.564-17.626c2.111-3.186,4.097-6.414,5.959-9.807v-0.041
		c1.82-3.353,3.517-6.827,5.006-10.386c3.021-7.117,5.379-14.606,6.952-22.386c1.572-7.736,2.4-15.764,2.4-23.998
		S322.503,131.492,320.932,123.754 M302.312,168.648c-4.096,9.931-11.379,16.344-21.682,19.116
		c-9.185,2.441-18.288,1.82-26.853-2.482c-7.117-3.6-12.165-9.145-15.227-16.551c-0.248-0.662-0.207-1.241,0.083-1.904
		c9.516-23.543,19.033-47.128,28.591-70.713c0.124-0.331,0.249-0.703,0.414-1.117H140.899l1.904,4.634
		c9.02,22.385,18.081,44.77,27.143,67.155c0.29,0.745,0.331,1.324,0.041,2.027c-3.765,8.813-10.054,15.062-19.075,18.082
		c-11.089,3.766-22.012,3.062-32.149-3.145c-6.083-3.766-10.386-9.145-12.827-15.931c10.592-26.232,21.226-56.645,31.819-82.96
		c0.289-0.704,0.662-0.869,1.324-0.869c11.668,0.041,46.218,0.041,57.845,0.041h1.489v-1.324V69.84
		c0.042-2.979,1.904-5.214,4.717-5.752c3.393-0.662,6.621,1.987,6.621,5.462c0.041,6.869,0,6.248,0,13.075v1.407h1.2
		c11.709,0,46.631,0,58.3-0.041c0.869,0,1.282,0.207,1.655,1.034c10.427,25.985,20.936,55.983,31.364,81.968
		C302.477,167.448,302.519,168.193,302.312,168.648"/>
	<path clip-path="url(#SVGID_2_)" fill="#94193E" d="M296.974,168.317h-52.383c-1.614,0-1.614,0-1.035-1.448
		c8.813-21.847,17.627-43.653,26.44-65.5c0.124-0.29,0.248-0.538,0.455-1.076c0.993,2.442,1.904,4.676,2.814,6.91
		c8.027,19.82,16.013,39.681,24.04,59.5c0.083,0.249,0.165,0.497,0.29,0.745C297.884,168.069,297.595,168.317,296.974,168.317"/>
	<path clip-path="url(#SVGID_2_)" fill="#94193E" d="M165.602,168.234c-0.704,0.041-1.117,0.083-1.49,0.083h-51.928
		c-1.489,0-1.531-0.083-0.993-1.448c8.813-21.847,17.668-43.652,26.482-65.5c0.124-0.29,0.248-0.621,0.455-1.076
		C147.313,123.01,156.416,145.519,165.602,168.234"/>
</g>
</svg>
